<?xml version="1.0" encoding="UTF-8" standalone="no"?>
<svg
   width="48"
   height="48"
   viewBox="0 0 48 48"
   fill="none"
   version="1.1"
   id="svg13"
   sodipodi:docname="total_jobs.svg"
   inkscape:version="1.4 (e7c3feb1, 2024-10-09)"
   xmlns:inkscape="http://www.inkscape.org/namespaces/inkscape"
   xmlns:sodipodi="http://sodipodi.sourceforge.net/DTD/sodipodi-0.dtd"
   xmlns="http://www.w3.org/2000/svg"
   xmlns:svg="http://www.w3.org/2000/svg">
  <sodipodi:namedview
     id="namedview13"
     pagecolor="#505050"
     bordercolor="#ffffff"
     borderopacity="1"
     inkscape:showpageshadow="0"
     inkscape:pageopacity="0"
     inkscape:pagecheckerboard="1"
     inkscape:deskcolor="#505050"
     inkscape:zoom="2.1568414"
     inkscape:cx="82.759911"
     inkscape:cy="-30.368483"
     inkscape:window-width="1200"
     inkscape:window-height="1186"
     inkscape:window-x="0"
     inkscape:window-y="25"
     inkscape:window-maximized="0"
     inkscape:current-layer="g13" />
  <g
     clip-path="url(#clip0_23_105)"
     id="g13">
    <path
       d="m 22.4088,14.8512 c -0.9799,-4.8019 4.4899,-7.25891 11.1394,-6.89328 6.5472,0.36075 13.5039,3.25648 13.8744,6.40578 0.3412,2.9104 -6.5813,4.5874 -12.5874,4.5874 -6.006,0 -11.7244,-0.6727 -12.4264,-4.0999 z"
       fill="#0c2577"
       id="path1" />
    <path
       d="M 20.2637,8.31866 C 20.644,4.72088 14.2431,4.08225 9.87503,5.42289 5.507,6.76352 2.18709,9.75192 5.19012,11.1657 c 1.68189,0.7946 4.98718,1.2334 8.85798,0.5996 3.8708,-0.6337 6.006,-1.4284 6.2156,-3.44664 z"
       fill="#0c2577"
       id="path2" />
    <path
       d="M 34.6695,29.3398 C 33.9285,23.1827 27.0986,21.2668 19.669,22.1881 12.2394,23.1095 4.21025,26.8682 1.0756,32.0552 -3.15106,39.046 5.78976,42.8827 15.5155,42.7121 25.2412,42.5414 35.7518,38.3684 34.6646,29.335 Z"
       fill="#0c2577"
       id="path3" />
  </g>
  <defs
     id="defs13">
    <clipPath
       id="clip0_23_105">
      <rect
         width="236"
         height="48"
         fill="#ffffff"
         id="rect13"
         x="0"
         y="0" />
    </clipPath>
  </defs>
</svg>
