<svg xmlns="http://www.w3.org/2000/svg" version="1.1" xmlns:xlink="http://www.w3.org/1999/xlink" xmlns:svgjs="http://svgjs.dev/svgjs" width="21" height="21"><svg width="21" height="21" viewBox="0 0 21 21" version="1.1" id="SvgjsSvg1055" sodipodi:docname="logo-color.svg" inkscape:version="1.4 (e7c3feb1, 2024-10-09)" xmlns:inkscape="http://www.inkscape.org/namespaces/inkscape" xmlns:sodipodi="http://sodipodi.sourceforge.net/DTD/sodipodi-0.dtd" xmlns="http://www.w3.org/2000/svg" xmlns:svg="http://www.w3.org/2000/svg">
  <defs id="SvgjsDefs1054"></defs>
  <sodipodi:namedview id="SvgjsSodipodi:namedview1053" pagecolor="#505050" bordercolor="#ffffff" borderopacity="1" inkscape:showpageshadow="0" inkscape:pageopacity="0" inkscape:pagecheckerboard="1" inkscape:deskcolor="#505050" showgrid="false" inkscape:zoom="45.680839" inkscape:cx="15.750586" inkscape:cy="15.892878" inkscape:window-width="3840" inkscape:window-height="2107" inkscape:window-x="0" inkscape:window-y="25" inkscape:window-maximized="1" inkscape:current-layer="svg1"></sodipodi:namedview>
  <path fill="currentColor" d="M 8.175,11.7 9.05,8.85 6.75,7 H 9.6 L 10.5,4.2 11.4,7 h 2.85 L 11.925,8.85 12.8,11.7 10.5,9.925 Z M 4.5,21 V 13.275 Q 3.55,12.225 3.025,10.875 2.5,9.525 2.5,8 2.5,4.65 4.825,2.325 7.15,0 10.5,0 13.85,0 16.175,2.325 18.5,4.65 18.5,8 q 0,1.525 -0.525,2.875 -0.525,1.35 -1.475,2.4 V 21 l -6,-2 z m 6,-7 Q 13,14 14.75,12.25 16.5,10.5 16.5,8 16.5,5.5 14.75,3.75 13,2 10.5,2 8,2 6.25,3.75 4.5,5.5 4.5,8 4.5,10.5 6.25,12.25 8,14 10.5,14" id="SvgjsPath1052" style="fill:#00aa44"></path>
</svg><style>@media (prefers-color-scheme: light) { :root { filter: none; } }
@media (prefers-color-scheme: dark) { :root { filter: none; } }
</style></svg>